# xmcd CD database file
# Copyright (C) 1997 Ti Kan
#
# Track frame offsets:
#  150
#  24670
#  40252
#  50495
#  74667
#  97920
#  132042
#
# Disc length: 2170 seconds
#
# Revision: 1
# Processed by: cddbd v1.4b41PL1 Copyright (c) Steve Scherf et al.
# Submitted via: CDWizzard Release:4.32
#
DISCID=5b087807
DTITLE=Peps Blodsband - Fram Med Pengarna!
DYEAR=1900
DGENRE=
TTITLE0=Lived Po Lanned
TTITLE1=Hon Har Nanting
TTITLE2=Bom Bom - Sen blir Det Svart
TTITLE3=Ronny Du E Ra
TTITLE4=Fram Med Pengarna
TTITLE5=Samma Sang
TTITLE6=Sent Pa Jorden
EXTD=
EXTT0=
EXTT1=
EXTT2=
EXTT3=
EXTT4=
EXTT5=
EXTT6=
PLAYORDER=
